<svg width="285" height="103" viewBox="0 0 285 103" fill="none" xmlns="http://www.w3.org/2000/svg">
<path d="M142.902 102.633H134.992V49.7578H142.902V53.4844C146.02 50.3672 149.559 48.8086 153.52 48.8086C158.23 48.8086 162.109 50.543 165.156 54.0117C168.25 57.457 169.797 61.8047 169.797 67.0547C169.797 72.1875 168.262 76.4648 165.191 79.8867C162.145 83.2852 158.301 84.9844 153.66 84.9844C149.652 84.9844 146.066 83.3789 142.902 80.168V102.633ZM161.711 67.0898C161.711 63.8086 160.82 61.1367 159.039 59.0742C157.234 56.9883 154.961 55.9453 152.219 55.9453C149.312 55.9453 146.957 56.9531 145.152 58.9688C143.348 60.9844 142.445 63.6328 142.445 66.9141C142.445 70.125 143.348 72.7734 145.152 74.8594C146.934 76.8984 149.277 77.918 152.184 77.918C154.926 77.918 157.188 76.8867 158.969 74.8242C160.797 72.7617 161.711 70.1836 161.711 67.0898ZM186.074 24.6211V84H178.164V24.6211H186.074ZM229.492 70.8164H206.254L200.207 84H191.383L218.242 26.3086L244.152 84H235.188L229.492 70.8164ZM226.152 63.1172L218.102 44.6602L209.664 63.1172H226.152ZM249.461 49.7578H257.406V52.9219C260.172 50.1797 263.289 48.8086 266.758 48.8086C270.742 48.8086 273.848 50.0625 276.074 52.5703C277.996 54.7031 278.957 58.1836 278.957 63.0117V84H271.012V64.875C271.012 61.5 270.543 59.168 269.605 57.8789C268.691 56.5664 267.027 55.9102 264.613 55.9102C261.988 55.9102 260.125 56.7773 259.023 58.5117C257.945 60.2227 257.406 63.2109 257.406 67.4766V84H249.461V49.7578Z" fill="#FE9A3E"/>
<path d="M13.0144 60.6147C7.94001 57.9604 5 54.8079 5 51.4272C5 41.9714 27.9955 34.3065 56.3619 34.3065C84.7285 34.3065 107.724 41.9714 107.724 51.4272C107.724 55.5042 103.448 59.2484 96.3101 62.1892" stroke="#24998B" stroke-width="8.56032" stroke-linecap="round" stroke-linejoin="round"/>
<path d="M56.3619 45.7773L56.419 45.714" stroke="#FE9A3E" stroke-width="8.56032" stroke-linecap="round" stroke-linejoin="round"/>
<path d="M84.2269 17.1859C84.2001 11.3479 82.7271 7.21648 79.6779 5.66279C71.2529 1.37007 53.9833 18.3793 41.1054 43.6538C28.2273 68.9285 24.6172 92.8979 33.0421 97.1906C36.0521 98.7241 40.191 97.5388 44.8553 94.2288" stroke="#6BAE63" stroke-width="8.56032" stroke-linecap="round" stroke-linejoin="round"/>
<path d="M42.6706 7.2082C38.9021 5.0062 35.5728 4.37331 33.0418 5.66289C24.6169 9.95561 28.2269 33.9247 41.105 59.1994C53.9833 84.474 71.2523 101.483 79.6774 97.1906C87.1659 93.375 85.1463 74.0133 75.5604 52.007" stroke="#F5E468" stroke-width="8.56032" stroke-linecap="round" stroke-linejoin="round"/>
</svg>
