<svg width="291" height="103" viewBox="0 0 291 103" fill="none" xmlns="http://www.w3.org/2000/svg">
<path d="M148.902 102.633H140.992V49.7578H148.902V53.4844C152.02 50.3672 155.559 48.8086 159.52 48.8086C164.23 48.8086 168.109 50.543 171.156 54.0117C174.25 57.457 175.797 61.8047 175.797 67.0547C175.797 72.1875 174.262 76.4648 171.191 79.8867C168.145 83.2852 164.301 84.9844 159.66 84.9844C155.652 84.9844 152.066 83.3789 148.902 80.168V102.633ZM167.711 67.0898C167.711 63.8086 166.82 61.1367 165.039 59.0742C163.234 56.9883 160.961 55.9453 158.219 55.9453C155.312 55.9453 152.957 56.9531 151.152 58.9688C149.348 60.9844 148.445 63.6328 148.445 66.9141C148.445 70.125 149.348 72.7734 151.152 74.8594C152.934 76.8984 155.277 77.918 158.184 77.918C160.926 77.918 163.188 76.8867 164.969 74.8242C166.797 72.7617 167.711 70.1836 167.711 67.0898ZM192.074 24.6211V84H184.164V24.6211H192.074ZM235.492 70.8164H212.254L206.207 84H197.383L224.242 26.3086L250.152 84H241.188L235.492 70.8164ZM232.152 63.1172L224.102 44.6602L215.664 63.1172H232.152ZM255.461 49.7578H263.406V52.9219C266.172 50.1797 269.289 48.8086 272.758 48.8086C276.742 48.8086 279.848 50.0625 282.074 52.5703C283.996 54.7031 284.957 58.1836 284.957 63.0117V84H277.012V64.875C277.012 61.5 276.543 59.168 275.605 57.8789C274.691 56.5664 273.027 55.9102 270.613 55.9102C267.988 55.9102 266.125 56.7773 265.023 58.5117C263.945 60.2227 263.406 63.2109 263.406 67.4766V84H255.461V49.7578Z" fill="white"/>
<path d="M13.0144 60.6147C7.94001 57.9604 5 54.8079 5 51.4272C5 41.9714 27.9955 34.3065 56.3619 34.3065C84.7285 34.3065 107.724 41.9714 107.724 51.4272C107.724 55.5042 103.448 59.2484 96.3101 62.1892" stroke="white" stroke-width="8.56032" stroke-linecap="round" stroke-linejoin="round"/>
<path d="M56.3619 45.7773L56.419 45.714" stroke="white" stroke-width="8.56032" stroke-linecap="round" stroke-linejoin="round"/>
<path d="M84.2269 17.1859C84.2001 11.3479 82.7271 7.21648 79.6779 5.66279C71.2529 1.37007 53.9833 18.3793 41.1054 43.6538C28.2273 68.9285 24.6172 92.8979 33.0421 97.1906C36.0521 98.7241 40.191 97.5388 44.8552 94.2288" stroke="white" stroke-width="8.56032" stroke-linecap="round" stroke-linejoin="round"/>
<path d="M42.6706 7.2082C38.902 5.0062 35.5728 4.37331 33.0418 5.66289C24.6169 9.95561 28.2269 33.9247 41.105 59.1994C53.9833 84.474 71.2523 101.483 79.6774 97.1906C87.1659 93.375 85.1463 74.0133 75.5604 52.007" stroke="white" stroke-width="8.56032" stroke-linecap="round" stroke-linejoin="round"/>
</svg>
